<?xml version="1.0" encoding="utf-8"?>
<!-- Generator: Adobe Illustrator 21.0.0, SVG Export Plug-In . SVG Version: 6.00 Build 0)  -->
<svg version="1.1" id="Layer_1" xmlns="http://www.w3.org/2000/svg" xmlns:xlink="http://www.w3.org/1999/xlink" x="0px" y="0px"
	 viewBox="0 0 2047 306" style="enable-background:new 0 0 2047 306;" xml:space="preserve">
<style type="text/css">
	.st0{fill:#005ECF;}
	.st1{fill:#016EF1;}
	.st2{fill:#2487FF;}
	.st3{fill:#D8D8DA;}
	.st4{fill:#C6C5CB;}
	.st5{fill:#E0E0E2;}
</style>
<path class="st0" d="M359.4,114.2c0.4-3.3,0.8-7.8,0.9-11.1c0.1-1.9,0-4.4-0.1-6.2c-0.1-1.5-0.3-3.5-0.4-5c-0.3-3.1-1.1-7.5-1.7-9.6
	c-0.3-1.2-0.7-2.9-1.1-4.1c-1.5-4.9-1.5-4.9-2.6-7.7c-0.4-1.1-1-2.5-1.5-3.6c-1-2-2.3-4.8-3.4-6.7c-1.2-2.1-1.4-2.5-4-6.4
	c-0.6-1-1.6-2.2-2.3-3.2c-0.7-1-1.7-2.2-2.5-3.2c-0.8-0.9-1.9-2.1-2.7-3.1c-0.8-0.9-2-2.1-2.9-3c0,0-3.1-3.2-7.8-6.7
	c-2.4-1.8-5.7-4.1-8.3-5.6c-4.7-2.8-7.3-3.9-11.5-5.7c-2.5-1.1-6-2.2-8.6-3c-3.2-0.9-7.5-1.9-10.8-2.3c-3.7-0.5-8.7-0.9-12.4-0.9
	c-8.4-0.1-16.7,1.6-19.9,2.4c-3,0.8-7,1.9-9.9,3.1c-3,1.2-6.7,3-9.9,4.6c-0.8,0.4-1.5,0.7-2.3,1.2l-89,51c0.1-0.1,0.2-0.1,0.3-0.1
	c-10.8,6.1-17.7,19.2-18,38c-0.6,37.9,25.7,84.6,58.7,104.2c17.2,10.2,32.8,11.1,43.9,4.2c-0.3,0.2-0.5,0.3-0.8,0.5l89-51
	c2.4-1.4,5.5-3.4,7.8-5c2.5-1.8,5.8-4.4,8-6.6c2.8-2.8,6.4-6.6,8.8-9.7c2-2.5,4.4-6,6-8.8c1.8-3.1,4-7.4,5.4-10.7
	c1.4-3.4,2.9-8,3.8-11.5C358.3,120.3,359,116.8,359.4,114.2z"/>
<path class="st1" d="M185.7,221.5c-33-19.6-59.3-66.2-58.7-104.2s27.8-52.8,60.8-33.2c33,19.6,59.3,66.2,58.7,104.2
	S218.7,241.1,185.7,221.5z"/>
<path class="st2" d="M359.4,114.2c0.4-3.3,0.8-7.8,0.9-11.1c0.1-1.9,0-4.4-0.1-6.2c-0.1-1.5-0.3-3.5-0.4-5c-0.3-3.1-1.1-7.5-1.7-9.6
	c-0.3-1.2-0.7-2.9-1.1-4.1c-1.5-4.9-1.5-4.9-2.6-7.7c-0.4-1.1-1-2.5-1.5-3.6c-1-2-2.3-4.8-3.4-6.7c-1.2-2.1-1.4-2.5-4-6.4
	c-0.6-1-1.6-2.2-2.3-3.2c-0.7-1-1.7-2.2-2.5-3.2c-0.8-0.9-1.9-2.1-2.7-3.1c-0.8-0.9-2-2.1-2.9-3c0,0-3.1-3.2-7.8-6.7
	c-2.4-1.8-5.7-4.1-8.3-5.6c-4.7-2.8-7.3-3.9-11.5-5.7c-2.5-1.1-6-2.2-8.6-3c-3.2-0.9-7.5-1.9-10.8-2.3c-3.7-0.5-8.7-0.9-12.4-0.9
	c-8.4-0.1-16.7,1.6-19.9,2.4c-3,0.8-7,1.9-9.9,3.1c-3,1.2-6.7,3-9.9,4.6c-0.8,0.4-1.5,0.7-2.3,1.2l-89,51
	c11.1-6.3,26.3-5.3,43.1,4.7c33,19.6,59.3,66.2,58.7,104.2c-0.3,18.6-7,31.7-17.7,37.8l89-51c2.4-1.4,5.5-3.4,7.8-5
	c2.5-1.8,5.8-4.4,8-6.6c2.8-2.8,6.4-6.6,8.8-9.7c2-2.5,4.4-6,6-8.8c1.8-3.1,4-7.4,5.4-10.7c1.4-3.4,2.9-8,3.8-11.5
	C358.3,120.3,359,116.8,359.4,114.2z"/>
<path class="st0" d="M359.4,114.2c0.4-3.3,0.8-7.8,0.9-11.1c0.1-1.9,0-4.4-0.1-6.2c-0.1-1.5-0.3-3.5-0.4-5c-0.3-3.1-1.1-7.5-1.7-9.6
	c-0.3-1.2-0.7-2.9-1.1-4.1c-1.5-4.9-1.5-4.9-2.6-7.7c-0.4-1.1-1-2.5-1.5-3.6c-1-2-2.3-4.8-3.4-6.7c-1.2-2.1-1.4-2.5-4-6.4
	c-0.6-1-1.6-2.2-2.3-3.2c-0.1-0.2-0.3-0.4-0.5-0.6c0.1,0.3,0.2,0.6,0.3,0.8c1.1,2.8,1.1,2.8,2.6,7.7c0.4,1.2,0.8,2.8,1.1,4.1
	c0.5,2.2,1.4,6.5,1.7,9.6c0.2,1.5,0.4,3.5,0.4,5c0.1,1.9,0.2,4.4,0.1,6.2c-0.1,3.4-0.5,7.8-0.9,11.1c-0.4,2.6-1,6.1-1.7,8.7
	c-1,3.5-2.4,8.1-3.8,11.5c-1.4,3.3-3.5,7.6-5.4,10.7c-1.6,2.8-4,6.3-6,8.8c-2.5,3.1-6,6.9-8.8,9.7c-2.2,2.2-5.5,4.8-8,6.6
	c-2.2,1.6-5.4,3.6-7.8,5l-60,34.4c-0.6,17.8-7.3,30.3-17.7,36.3l89-51c2.4-1.4,5.5-3.4,7.8-5c2.5-1.8,5.8-4.4,8-6.6
	c2.8-2.8,6.4-6.6,8.8-9.7c2-2.5,4.4-6,6-8.8c1.8-3.1,4-7.4,5.4-10.7c1.4-3.4,2.9-8,3.8-11.5C358.3,120.3,359,116.8,359.4,114.2z"/>
<path class="st3" d="M242.6,188.1c0.6-36.7-24.9-81.8-56.8-100.7c-16.2-9.6-31-10.7-41.7-4.5l-86,49.3c-2.5,1.5-5.9,3.7-8.3,5.4
	c-2.4,1.8-5.5,4.4-7.7,6.5c-2.7,2.7-6.1,6.4-8.4,9.4c-1.9,2.4-4.2,5.9-5.7,8.6c-1.8,3-3.8,7.2-5.1,10.5c-1.3,3.2-2.6,7.7-3.6,11.1
	c-0.6,2.2-1.2,5.2-1.4,7.4c-0.6,5.4-0.8,7-0.9,11.8c0,2.9,0.2,6.9,0.6,9.8c0.5,4.4,1.4,8.5,1.6,9.3c0.3,1.2,0.7,2.8,1,3.9
	c1.5,4.7,1.5,4.7,2.5,7.4c0.4,1,1,2.4,1.5,3.5c2,4.2,2.1,4.4,3.3,6.5c1.1,1.9,2.7,4.4,3.9,6.2c0.6,0.9,1.5,2.2,2.2,3.1
	c0.7,0.9,1.7,2.2,2.4,3.1c0.8,0.9,1.8,2.1,2.6,3c0.8,0.9,2,2,2.8,2.9c0,0,3,3,7.5,6.5c2.3,1.8,5.6,3.9,8.1,5.4
	c1.8,1.1,4.3,2.4,6.2,3.3c1.4,0.7,3.4,1.5,4.9,2.2c2.4,1,5.8,2.2,8.3,2.9c3.1,0.8,7.3,1.8,10.5,2.2c3.6,0.5,8.4,0.8,12,0.9
	c8.1,0.1,16.1-1.5,19.2-2.3c2.9-0.8,6.8-1.8,9.5-3c3.6-1.5,8.3-3.8,11.8-5.6l86-49.3C235.9,218.8,242.4,206.2,242.6,188.1z"/>
<path class="st4" d="M242.6,188.1c0.3-22.2-8.9-47.5-23.3-68.2c7.4,15.7,11.7,32.5,11.5,47.8c-0.3,18-6.8,30.7-17.1,36.6l-86,49.3
	c-3.5,1.8-8.2,4.1-11.8,5.6c-2.8,1.1-6.6,2.2-9.5,3c-3.1,0.8-11.1,2.4-19.2,2.3c-3.6,0-8.4-0.4-12-0.9c-3.2-0.4-7.4-1.4-10.5-2.2
	c-2.5-0.7-5.9-1.8-8.3-2.9c-1.5-0.6-3.5-1.5-4.9-2.2c-1.9-0.9-4.4-2.3-6.2-3.3c-2.5-1.6-5.7-3.7-8.1-5.4c-4.5-3.5-7.5-6.5-7.5-6.5
	c-0.8-0.9-2-2-2.8-2.9c-0.8-0.9-1.8-2.1-2.6-3c-0.4-0.5-1-1.2-1.5-1.8c0.4,1,1,2.4,1.5,3.4c2,4.2,2.1,4.4,3.3,6.5
	c1.1,1.9,2.7,4.4,3.9,6.2c0.6,0.9,1.5,2.2,2.2,3.1c0.7,0.9,1.7,2.2,2.4,3.1c0.8,0.9,1.8,2.1,2.6,3c0.8,0.9,2,2,2.8,2.9
	c0,0,3,3,7.5,6.5c2.3,1.8,5.6,3.9,8.1,5.4c1.8,1.1,4.3,2.4,6.2,3.3c1.4,0.7,3.4,1.5,4.9,2.2c2.4,1,5.8,2.2,8.3,2.9
	c3.1,0.8,7.3,1.8,10.5,2.2c3.6,0.5,8.4,0.8,12,0.9c8.1,0.1,16.1-1.5,19.2-2.3c2.9-0.8,6.8-1.8,9.5-3c3.6-1.5,8.3-3.8,11.8-5.6
	l86-49.3C235.9,218.8,242.4,206.2,242.6,188.1z"/>
<circle class="st5" cx="72.9" cy="195.3" r="42.5"/>
<g>
	<path class="st4" d="M392.6,32.1l191.1-5L565,65.8l-74.1-1.6l-79.3,176.5h-50.3l91.5-177.3l-74.6-1.6L392.6,32.1z"/>
	<path class="st4" d="M579,98.5h35.1L552,240.6h-47.6L579,98.5z M624,78.1h-35.1l18.6-47.3h44.4L624,78.1z"/>
	<path class="st4" d="M733.2,243l63.4-126.5l-41.6,0.3l-57.3,125H657l63.7-125h-42.5L619.4,243h-45.2l78.1-157.2l175-1.8l13.3,24.6
		L777.1,243H733.2z"/>
	<path class="st4" d="M864.2,205.7l97.4,0.8l-16.2,34.1l-144,0.5L880.7,85l118.7-0.8l8.9,23.2L974,179.6l-97.8-0.5L864.2,205.7z
		 M948.2,146l14.5-28.5l-58.6,2.1l-13,27.5L948.2,146z"/>
	<path class="st2" d="M1106.7,243.8L967.4,244l80.9-158.5l135-0.5l-16,33.3l-95.9,1.6l-40.3,89l92.2,0.5L1106.7,243.8z"/>
	<path class="st2" d="M1325.5,107.5l-47.1,99.9h12.9l-16.3,33.8l-143.2,0.5l80-156.7l97.9-0.8L1325.5,107.5z M1234.7,207.1l45-89.6
		l-44.5,1.8l-39.4,87.2L1234.7,207.1z"/>
	<path class="st2" d="M1311.4,292.6h-42.8l96.8-206.8l111.3-0.3l11.5,24.8L1434.1,220l-88.9,0.3L1311.4,292.6z M1391.1,119.6
		l-31.8,68.7l48.1,0.5l33.6-70.3L1391.1,119.6z"/>
	<path class="st2" d="M1630.1,113.5l-86,0.8l-16.2,31.4h67.4l9.6,22.2l-40.4,73.4l-124.7,1.1l17.3-30.9l84.9-0.3l17.6-32.8
		l-73.3,0.8l-1.4-26.7l39.1-70.8l120.5-0.5L1630.1,113.5z"/>
	<path class="st2" d="M1800.7,83.2l-78.4,159.3l-128.3-1.8l73.5-157.4h44.4L1648.4,210l49.8,0.3l58.6-127.1H1800.7z"/>
	<path class="st2" d="M1858.3,23.2h34.6l-99.1,218.2h-47L1858.3,23.2z"/>
	<path class="st2" d="M1878.9,205.7l97.4,0.8l-16.2,34.1l-144,0.5L1895.4,85l118.7-0.8l8.9,23.2l-34.2,72.1L1891,179L1878.9,205.7z
		 M1962.9,146l14.5-28.5l-58.6,2.1l-13,27.5L1962.9,146z"/>
</g>
</svg>
